<svg xmlns="http://www.w3.org/2000/svg" xmlns:svg="http://www.w3.org/2000/svg" preserveAspectRatio="xMidYMid meet" version="1.0" viewBox="1.67 2.41 146.07 145.63">
 <g class="layer">
  <title>Layer 1</title>
  <g fill="#000000" id="svg_1" transform="matrix(0.0973688 0 0 -0.0973688 0.0184114 0.0377015)">
   <path d="m649,-30c-361,-57 -633,-378 -632,-745c1,-201 67,-365 207,-514c101,-107 219,-175 368,-213c114,-29 300,-22 403,14c181,65 294,153 399,313c103,156 143,338 114,510c-43,252 -190,453 -412,563c-46,23 -112,48 -147,57c-81,19 -227,27 -300,15zm564,-331c53,-50 97,-97 97,-104c0,-7 -50,-59 -112,-116c-62,-57 -148,-138 -192,-180c-45,-41 -152,-143 -240,-225c-87,-82 -170,-156 -185,-166c-40,-25 -350,-128 -356,-119c-2,5 27,77 65,160c80,171 39,125 489,546c41,39 91,86 111,105c107,104 203,190 214,190c6,0 55,-41 109,-91z" fill="#d24567" id="svg_2"/>
   <path d="m1075,-376l-28,-26l56,-54c61,-59 75,-64 100,-36c24,26 22,34 -20,73c-81,74 -76,73 -108,43z" fill="#d24567" id="svg_3"/>
   <path d="m394,-981c-7,-8 -26,-47 -43,-87c-54,-123 -25,-144 122,-91l92,34l-45,5c-44,5 -45,6 -42,38c2,30 0,32 -32,32c-34,0 -35,1 -38,42c-2,33 -5,38 -14,27z" fill="#d24567" id="svg_4"/>
  </g>
 </g>
</svg>